<svg width="1200" height="628" viewBox="0 0 1200 628" fill="none" xmlns="http://www.w3.org/2000/svg">
<g filter="url(#filter0_f_533_1255)">
<path d="M70 220C70 137.157 137.157 70 220 70H1050C1132.84 70 1200 137.157 1200 220C1200 192.386 1155.23 170 1100 170H220C192.386 170 170 192.386 170 220H70ZM1200 678H70L170 578H1200V678ZM70 678V220C70 137.157 137.157 70 220 70V170C192.386 170 170 192.386 170 220V578L70 678ZM170 578M1200 120V628V120" fill="#F9FAFB"/>
</g>
<defs>
<filter id="filter0_f_533_1255" x="0" y="0" width="1270" height="748" filterUnits="userSpaceOnUse" color-interpolation-filters="sRGB">
<feFlood flood-opacity="0" result="BackgroundImageFix"/>
<feBlend mode="normal" in="SourceGraphic" in2="BackgroundImageFix" result="shape"/>
<feGaussianBlur stdDeviation="35" result="effect1_foregroundBlur_533_1255"/>
</filter>
</defs>
</svg>
