<svg width="80" height="80" viewBox="0 0 80 80" fill="none" xmlns="http://www.w3.org/2000/svg">
<g filter="url(#filter0_d_756_338)">
<rect x="24" y="16" width="32" height="32" rx="8" fill="#3B82F6" shape-rendering="crispEdges"/>
<path d="M39.3755 34.6516V39.7563C39.3758 39.8005 39.3667 39.8443 39.3488 39.8848C39.3309 39.9252 39.3046 39.9614 39.2716 39.991C39.2387 40.0205 39.1999 40.0427 39.1577 40.0561C39.1155 40.0696 39.071 40.0739 39.0271 40.0688C37.5829 39.8914 36.2125 39.3305 35.0585 38.4443C33.9044 37.5582 33.0088 36.3791 32.4646 35.0297C32.4483 34.9887 32.4409 34.9447 32.4429 34.9006C32.4448 34.8565 32.4561 34.8133 32.476 34.7739C32.4958 34.7345 32.5238 34.6998 32.558 34.6719C32.5923 34.6441 32.6321 34.6239 32.6747 34.6125L37.6036 33.2891C37.6667 33.2725 37.7334 33.2761 37.7944 33.2994C37.8553 33.3226 37.9074 33.3644 37.9435 33.4188C38.2419 33.8505 38.6677 34.1783 39.1614 34.3563C39.2235 34.3769 39.2776 34.4165 39.316 34.4695C39.3544 34.5224 39.3752 34.5861 39.3755 34.6516ZM40.0052 23.875C39.9227 23.8744 39.8409 23.8901 39.7646 23.9212C39.6882 23.9524 39.6187 23.9983 39.5602 24.0564C39.5017 24.1145 39.4552 24.1836 39.4235 24.2598C39.3918 24.3359 39.3755 24.4175 39.3755 24.5V28.875C39.3742 29.0394 39.4383 29.1976 39.5536 29.3147C39.6689 29.4319 39.826 29.4986 39.9903 29.5C40.5806 29.4975 41.1527 29.7039 41.6054 30.0827C42.0581 30.4614 42.3622 30.9882 42.4638 31.5697C42.5654 32.1511 42.458 32.7498 42.1606 33.2597C41.8632 33.7695 41.3949 34.1577 40.8388 34.3555C40.7767 34.3763 40.7227 34.416 40.6844 34.4692C40.6462 34.5223 40.6255 34.5861 40.6255 34.6516V39.7563C40.6252 39.8004 40.6343 39.8442 40.6522 39.8846C40.67 39.925 40.6962 39.9611 40.7291 39.9907C40.7619 40.0202 40.8007 40.0424 40.8427 40.0559C40.8848 40.0693 40.9293 40.0737 40.9731 40.0688C43.0321 39.8252 44.9201 38.8038 46.2505 37.2136C47.5809 35.6235 48.2531 33.5848 48.1294 31.5152C48.0056 29.4456 47.0954 27.5015 45.5851 26.0812C44.0747 24.6608 42.0785 23.8715 40.0052 23.875ZM37.5052 31.8039C37.5343 31.4347 37.645 31.0766 37.8294 30.7555V30.75C37.8913 30.6431 37.9202 30.5201 37.9122 30.3968C37.9043 30.2734 37.86 30.1552 37.7849 30.057C37.7323 29.9895 37.667 29.933 37.5927 29.8906L33.8169 27.7078C33.7458 27.6668 33.6672 27.6402 33.5858 27.6296C33.5044 27.6189 33.4216 27.6244 33.3423 27.6457C33.263 27.667 33.1887 27.7038 33.1236 27.7539C33.0585 27.8039 33.004 27.8663 32.963 27.9375C32.0537 29.5123 31.6983 31.3464 31.9536 33.1469C31.9596 33.1908 31.9749 33.233 31.9985 33.2706C32.0221 33.3081 32.0534 33.3403 32.0904 33.3648C32.1273 33.3893 32.1691 33.4057 32.2128 33.4129C32.2566 33.42 32.3014 33.4178 32.3442 33.4063L37.2833 32.0781C37.3445 32.0612 37.399 32.0258 37.4393 31.9767C37.4796 31.9276 37.5037 31.8673 37.5083 31.8039H37.5052Z" fill="white"/>
</g>
<defs>
<filter id="filter0_d_756_338" x="0" y="0" width="80" height="80" filterUnits="userSpaceOnUse" color-interpolation-filters="sRGB">
<feFlood flood-opacity="0" result="BackgroundImageFix"/>
<feColorMatrix in="SourceAlpha" type="matrix" values="0 0 0 0 0 0 0 0 0 0 0 0 0 0 0 0 0 0 127 0" result="hardAlpha"/>
<feOffset dy="8"/>
<feGaussianBlur stdDeviation="12"/>
<feComposite in2="hardAlpha" operator="out"/>
<feColorMatrix type="matrix" values="0 0 0 0 0.231373 0 0 0 0 0.509804 0 0 0 0 0.964706 0 0 0 0.24 0"/>
<feBlend mode="normal" in2="BackgroundImageFix" result="effect1_dropShadow_756_338"/>
<feBlend mode="normal" in="SourceGraphic" in2="effect1_dropShadow_756_338" result="shape"/>
</filter>
</defs>
</svg>
