<svg width="80" height="80" viewBox="0 0 80 80" fill="none" xmlns="http://www.w3.org/2000/svg">
<g filter="url(#filter0_d_756_203)">
<rect x="24" y="16" width="32" height="32" rx="8" fill="#EF4444" shape-rendering="crispEdges"/>
<path d="M48.125 38.25C48.125 38.4158 48.0592 38.5747 47.9419 38.6919C47.8247 38.8092 47.6658 38.875 47.5 38.875H32.5C32.3342 38.875 32.1753 38.8092 32.0581 38.6919C31.9408 38.5747 31.875 38.4158 31.875 38.25C31.875 38.0842 31.9408 37.9253 32.0581 37.8081C32.1753 37.6908 32.3342 37.625 32.5 37.625H33.125V32.625C33.125 32.4592 33.1908 32.3003 33.3081 32.1831C33.4253 32.0658 33.5842 32 33.75 32H35.625C35.7908 32 35.9497 32.0658 36.0669 32.1831C36.1842 32.3003 36.25 32.4592 36.25 32.625V37.625H37.5V28.875C37.5 28.7092 37.5658 28.5503 37.6831 28.4331C37.8003 28.3158 37.9592 28.25 38.125 28.25H40.625C40.7908 28.25 40.9497 28.3158 41.0669 28.4331C41.1842 28.5503 41.25 28.7092 41.25 28.875V37.625H42.5V25.125C42.5 24.9592 42.5658 24.8003 42.6831 24.6831C42.8003 24.5658 42.9592 24.5 43.125 24.5H46.25C46.4158 24.5 46.5747 24.5658 46.6919 24.6831C46.8092 24.8003 46.875 24.9592 46.875 25.125V37.625H47.5C47.6658 37.625 47.8247 37.6908 47.9419 37.8081C48.0592 37.9253 48.125 38.0842 48.125 38.25Z" fill="white"/>
</g>
<defs>
<filter id="filter0_d_756_203" x="0" y="0" width="80" height="80" filterUnits="userSpaceOnUse" color-interpolation-filters="sRGB">
<feFlood flood-opacity="0" result="BackgroundImageFix"/>
<feColorMatrix in="SourceAlpha" type="matrix" values="0 0 0 0 0 0 0 0 0 0 0 0 0 0 0 0 0 0 127 0" result="hardAlpha"/>
<feOffset dy="8"/>
<feGaussianBlur stdDeviation="12"/>
<feComposite in2="hardAlpha" operator="out"/>
<feColorMatrix type="matrix" values="0 0 0 0 0.937255 0 0 0 0 0.266667 0 0 0 0 0.266667 0 0 0 0.24 0"/>
<feBlend mode="normal" in2="BackgroundImageFix" result="effect1_dropShadow_756_203"/>
<feBlend mode="normal" in="SourceGraphic" in2="effect1_dropShadow_756_203" result="shape"/>
</filter>
</defs>
</svg>
