<svg width="80" height="80" viewBox="0 0 80 80" fill="none" xmlns="http://www.w3.org/2000/svg">
<g filter="url(#filter0_d_756_254)">
<rect x="24" y="16" width="32" height="32" rx="8" fill="#159D47" shape-rendering="crispEdges"/>
<path d="M37.5008 38.25C37.5008 38.4157 37.435 38.5747 37.3178 38.6919C37.2005 38.8091 37.0416 38.875 36.8758 38.875H33.1258C32.7968 38.8748 32.4736 38.788 32.1887 38.6233C31.9038 38.4587 31.6673 38.222 31.5029 37.937C31.3384 37.652 31.2519 37.3287 31.252 36.9997C31.252 36.6707 31.3386 36.3474 31.5032 36.0625L34.1821 31.4336L33.0844 31.7265C33.0049 31.7478 32.922 31.7531 32.8404 31.7423C32.7588 31.7315 32.6801 31.7048 32.6089 31.6636C32.465 31.5803 32.3601 31.4434 32.3172 31.2828C32.2743 31.1222 32.297 30.9512 32.3802 30.8073C32.4634 30.6634 32.6004 30.5585 32.761 30.5156L35.3211 29.8304C35.4004 29.8092 35.4831 29.8038 35.5646 29.8145C35.646 29.8252 35.7245 29.8518 35.7956 29.8929C35.8667 29.934 35.929 29.9886 35.9789 30.0538C36.0289 30.119 36.0655 30.1933 36.0867 30.2726L36.7735 32.8328C36.7952 32.9125 36.8008 32.9956 36.7902 33.0775C36.7796 33.1594 36.7528 33.2384 36.7115 33.3098C36.6701 33.3813 36.6151 33.4439 36.5494 33.494C36.4837 33.544 36.4088 33.5806 36.3289 33.6015C36.2759 33.6154 36.2213 33.6224 36.1664 33.6226C36.0289 33.6225 35.8953 33.577 35.7863 33.4933C35.6773 33.4095 35.5989 33.2922 35.5633 33.1594L35.2664 32.0539L32.5875 36.6875C32.5328 36.7823 32.5039 36.8898 32.5038 36.9992C32.5037 37.1087 32.5323 37.2163 32.5868 37.3112C32.6413 37.4061 32.7198 37.4851 32.8144 37.5401C32.909 37.5952 33.0164 37.6245 33.1258 37.625H36.8758C37.0416 37.625 37.2005 37.6908 37.3178 37.808C37.435 37.9252 37.5008 38.0842 37.5008 38.25ZM48.4953 36.0625L46.6875 32.9375C46.601 32.8014 46.4653 32.7041 46.3088 32.6657C46.1522 32.6274 45.9869 32.651 45.8473 32.7317C45.7077 32.8123 45.6047 32.9438 45.5598 33.0986C45.5149 33.2535 45.5316 33.4196 45.6063 33.5625L47.4141 36.6875C47.4688 36.7823 47.4977 36.8898 47.4978 36.9992C47.498 37.1087 47.4693 37.2163 47.4148 37.3112C47.3603 37.4061 47.2819 37.4851 47.1873 37.5401C47.0927 37.5952 46.9853 37.6245 46.8758 37.625H41.5094L42.3172 36.8172C42.4345 36.7 42.5004 36.541 42.5005 36.3753C42.5006 36.2095 42.4348 36.0505 42.3176 35.9332C42.2004 35.8159 42.0415 35.75 41.8757 35.7499C41.7099 35.7498 41.5509 35.8156 41.4336 35.9328L39.5586 37.8078C39.5005 37.8658 39.4544 37.9348 39.423 38.0106C39.3915 38.0865 39.3753 38.1678 39.3753 38.25C39.3753 38.3321 39.3915 38.4134 39.423 38.4893C39.4544 38.5652 39.5005 38.6341 39.5586 38.6922L41.4336 40.5672C41.4917 40.6252 41.5606 40.6712 41.6365 40.7026C41.7123 40.734 41.7936 40.7501 41.8757 40.75C41.9578 40.75 42.0391 40.7338 42.1149 40.7024C42.1907 40.6709 42.2596 40.6248 42.3176 40.5668C42.3756 40.5087 42.4216 40.4398 42.453 40.3639C42.4844 40.2881 42.5005 40.2068 42.5005 40.1247C42.5005 40.0426 42.4843 39.9613 42.4528 39.8855C42.4214 39.8097 42.3753 39.7408 42.3172 39.6828L41.5094 38.875H46.8758C47.2048 38.8748 47.528 38.788 47.8129 38.6233C48.0978 38.4587 48.3343 38.222 48.4988 37.937C48.6632 37.652 48.7497 37.3287 48.7497 36.9997C48.7496 36.6707 48.663 36.3474 48.4985 36.0625H48.4953ZM40.0008 24.5C40.1107 24.4989 40.2188 24.5273 40.3139 24.5823C40.409 24.6372 40.4876 24.7167 40.5414 24.8125L43.2203 29.4414L42.1203 29.1461C41.9622 29.109 41.7958 29.1349 41.6564 29.2183C41.5171 29.3018 41.4157 29.4362 41.3737 29.5931C41.3318 29.7501 41.3526 29.9172 41.4317 30.059C41.5109 30.2009 41.6421 30.3064 41.7977 30.3531L44.3586 31.0398C44.4114 31.0537 44.4658 31.0608 44.5203 31.0609C44.6578 31.0608 44.7914 31.0153 44.9005 30.9316C45.0095 30.8478 45.0879 30.7304 45.1235 30.5976L45.8102 28.0359C45.8338 27.9559 45.8411 27.872 45.8318 27.7892C45.8224 27.7063 45.7966 27.6262 45.7558 27.5535C45.715 27.4807 45.6601 27.4169 45.5942 27.3657C45.5284 27.3146 45.453 27.2771 45.3725 27.2555C45.2919 27.2339 45.2079 27.2287 45.1253 27.2401C45.0427 27.2515 44.9632 27.2793 44.8915 27.3219C44.8198 27.3644 44.7574 27.4209 44.7078 27.488C44.6583 27.5551 44.6227 27.6314 44.6032 27.7125L44.3063 28.8195L41.6235 24.1875C41.4587 23.903 41.2221 23.6668 40.9373 23.5026C40.6525 23.3384 40.3296 23.252 40.0008 23.252C39.6721 23.252 39.3491 23.3384 39.0643 23.5026C38.7795 23.6668 38.5429 23.903 38.3782 24.1875L36.5688 27.3125C36.491 27.4556 36.4723 27.6235 36.5165 27.7803C36.5607 27.9371 36.6644 28.0704 36.8054 28.1519C36.9465 28.2334 37.1138 28.2566 37.2717 28.2165C37.4296 28.1765 37.5656 28.0764 37.6508 27.9375L39.4602 24.8125C39.5141 24.7167 39.5926 24.6372 39.6877 24.5823C39.7828 24.5273 39.891 24.4989 40.0008 24.5Z" fill="white"/>
</g>
<defs>
<filter id="filter0_d_756_254" x="0" y="0" width="80" height="80" filterUnits="userSpaceOnUse" color-interpolation-filters="sRGB">
<feFlood flood-opacity="0" result="BackgroundImageFix"/>
<feColorMatrix in="SourceAlpha" type="matrix" values="0 0 0 0 0 0 0 0 0 0 0 0 0 0 0 0 0 0 127 0" result="hardAlpha"/>
<feOffset dy="8"/>
<feGaussianBlur stdDeviation="12"/>
<feComposite in2="hardAlpha" operator="out"/>
<feColorMatrix type="matrix" values="0 0 0 0 0.0823529 0 0 0 0 0.615686 0 0 0 0 0.278431 0 0 0 0.24 0"/>
<feBlend mode="normal" in2="BackgroundImageFix" result="effect1_dropShadow_756_254"/>
<feBlend mode="normal" in="SourceGraphic" in2="effect1_dropShadow_756_254" result="shape"/>
</filter>
</defs>
</svg>
