<svg width="80" height="80" viewBox="0 0 80 80" fill="none" xmlns="http://www.w3.org/2000/svg">
<g filter="url(#filter0_d_756_215)">
<rect x="24" y="16" width="32" height="32" rx="8" fill="#FACC15" shape-rendering="crispEdges"/>
<path d="M46.875 27H34.375C34.2092 27 34.0503 26.9342 33.9331 26.8169C33.8158 26.6997 33.75 26.5408 33.75 26.375C33.75 26.2092 33.8158 26.0503 33.9331 25.9331C34.0503 25.8158 34.2092 25.75 34.375 25.75H45C45.1658 25.75 45.3247 25.6842 45.4419 25.5669C45.5592 25.4497 45.625 25.2908 45.625 25.125C45.625 24.9592 45.5592 24.8003 45.4419 24.6831C45.3247 24.5658 45.1658 24.5 45 24.5H34.375C33.8777 24.5 33.4008 24.6975 33.0492 25.0492C32.6975 25.4008 32.5 25.8777 32.5 26.375V36.375C32.5 36.8723 32.6975 37.3492 33.0492 37.7008C33.4008 38.0525 33.8777 38.25 34.375 38.25H46.875C47.2065 38.25 47.5245 38.1183 47.7589 37.8839C47.9933 37.6495 48.125 37.3315 48.125 37V28.25C48.125 27.9185 47.9933 27.6005 47.7589 27.3661C47.5245 27.1317 47.2065 27 46.875 27ZM44.0625 33.25C43.8771 33.25 43.6958 33.195 43.5417 33.092C43.3875 32.989 43.2673 32.8426 43.1964 32.6713C43.1254 32.5 43.1068 32.3115 43.143 32.1296C43.1792 31.9477 43.2685 31.7807 43.3996 31.6496C43.5307 31.5185 43.6977 31.4292 43.8796 31.393C44.0615 31.3568 44.25 31.3754 44.4213 31.4464C44.5926 31.5173 44.739 31.6375 44.842 31.7917C44.945 31.9458 45 32.1271 45 32.3125C45 32.5611 44.9012 32.7996 44.7254 32.9754C44.5496 33.1512 44.3111 33.25 44.0625 33.25Z" fill="white"/>
</g>
<defs>
<filter id="filter0_d_756_215" x="0" y="0" width="80" height="80" filterUnits="userSpaceOnUse" color-interpolation-filters="sRGB">
<feFlood flood-opacity="0" result="BackgroundImageFix"/>
<feColorMatrix in="SourceAlpha" type="matrix" values="0 0 0 0 0 0 0 0 0 0 0 0 0 0 0 0 0 0 127 0" result="hardAlpha"/>
<feOffset dy="8"/>
<feGaussianBlur stdDeviation="12"/>
<feComposite in2="hardAlpha" operator="out"/>
<feColorMatrix type="matrix" values="0 0 0 0 0.980392 0 0 0 0 0.8 0 0 0 0 0.0823529 0 0 0 0.24 0"/>
<feBlend mode="normal" in2="BackgroundImageFix" result="effect1_dropShadow_756_215"/>
<feBlend mode="normal" in="SourceGraphic" in2="effect1_dropShadow_756_215" result="shape"/>
</filter>
</defs>
</svg>
