<svg width="173" height="32" viewBox="0 0 173 32" fill="none" xmlns="http://www.w3.org/2000/svg">
<path d="M144.927 28.6766H141.863L138.287 14.6824H138.219L134.678 28.6766H131.546L125.894 11.0732H129.094L133.078 25.476H133.146L136.687 11.0732H139.854L143.531 25.476H143.599L147.549 11.0732H150.545L144.927 28.6766Z" fill="#EEF8FF"/>
<path d="M109.712 19.8904C109.712 20.9573 109.848 21.9106 110.12 22.7505C110.416 23.5677 110.813 24.26 111.312 24.8275C111.812 25.3723 112.39 25.7922 113.049 26.0873C113.73 26.3824 114.445 26.53 115.194 26.53C115.943 26.53 116.647 26.3824 117.305 26.0873C117.986 25.7922 118.576 25.3723 119.075 24.8275C119.575 24.26 119.961 23.5677 120.233 22.7505C120.528 21.9106 120.676 20.9573 120.676 19.8904C120.676 18.8235 120.528 17.8815 120.233 17.0643C119.961 16.2244 119.575 15.5208 119.075 14.9533C118.576 14.3858 117.986 13.9545 117.305 13.6594C116.647 13.3643 115.943 13.2168 115.194 13.2168C114.445 13.2168 113.73 13.3643 113.049 13.6594C112.39 13.9545 111.812 14.3858 111.312 14.9533C110.813 15.5208 110.416 16.2244 110.12 17.0643C109.848 17.8815 109.712 18.8235 109.712 19.8904ZM106.647 19.8904C106.647 18.5965 106.829 17.3935 107.192 16.2812C107.555 15.1462 108.1 14.1701 108.827 13.353C109.553 12.5131 110.45 11.8548 111.516 11.3781C112.583 10.9014 113.809 10.6631 115.194 10.6631C116.601 10.6631 117.827 10.9014 118.871 11.3781C119.938 11.8548 120.835 12.5131 121.561 13.353C122.287 14.1701 122.832 15.1462 123.195 16.2812C123.559 17.3935 123.74 18.5965 123.74 19.8904C123.74 21.1843 123.559 22.3873 123.195 23.4996C122.832 24.6119 122.287 25.5879 121.561 26.4278C120.835 27.245 119.938 27.8919 118.871 28.3686C117.827 28.8226 116.601 29.0496 115.194 29.0496C113.809 29.0496 112.583 28.8226 111.516 28.3686C110.45 27.8919 109.553 27.245 108.827 26.4278C108.1 25.5879 107.555 24.6119 107.192 23.4996C106.829 22.3873 106.647 21.1843 106.647 19.8904Z" fill="#EEF8FF"/>
<path d="M99.8828 4.36328H102.777V28.6743H99.8828V4.36328Z" fill="#EEF8FF"/>
<path d="M80.2998 4.36328H96.2688V7.08721H83.5345V14.8164H94.7026V17.5403H83.5345V28.6743H80.2998V4.36328Z" fill="#EEF8FF"/>
<path d="M60.5586 4.36328H63.4528V13.6587H63.5209C63.7479 13.1139 64.0657 12.6599 64.4742 12.2967C64.8828 11.9108 65.3368 11.6044 65.8362 11.3774C66.3583 11.1277 66.8917 10.9461 67.4365 10.8326C68.004 10.7191 68.5488 10.6624 69.0709 10.6624C70.2285 10.6624 71.1933 10.8213 71.965 11.1391C72.7368 11.4568 73.3611 11.8995 73.8377 12.467C74.3144 13.0345 74.6436 13.7154 74.8252 14.5099C75.0295 15.2817 75.1316 16.1443 75.1316 17.0976V28.6743H72.2374V16.7572C72.2374 15.6676 71.9196 14.805 71.2841 14.1694C70.6485 13.5338 69.7746 13.2161 68.6623 13.2161C67.777 13.2161 67.0052 13.3522 66.3469 13.6246C65.7114 13.897 65.1779 14.2829 64.7466 14.7823C64.3153 15.2817 63.9862 15.8719 63.7592 16.5529C63.5549 17.2111 63.4528 17.9375 63.4528 18.732V28.6743H60.5586V4.36328Z" fill="#EEF8FF"/>
<path d="M53.8841 16.7238C53.6571 15.6116 53.1804 14.749 52.454 14.1361C51.7277 13.5232 50.7516 13.2168 49.5258 13.2168C48.4816 13.2168 47.6077 13.4097 46.904 13.7956C46.2004 14.1815 45.6329 14.6922 45.2016 15.3278C44.793 15.9634 44.4979 16.7011 44.3163 17.541C44.1347 18.3582 44.0439 19.2094 44.0439 20.0947C44.0439 20.9119 44.1347 21.7063 44.3163 22.4781C44.5206 23.2499 44.827 23.9422 45.2356 24.5551C45.6442 25.1453 46.1777 25.622 46.8359 25.9852C47.4942 26.3484 48.2774 26.53 49.1853 26.53C50.6154 26.53 51.7277 26.1554 52.5221 25.4064C53.3393 24.6573 53.8387 23.6018 54.0203 22.2398H56.9826C56.6648 24.4189 55.8476 26.0987 54.531 27.2791C53.2372 28.4594 51.4666 29.0496 49.2194 29.0496C47.8801 29.0496 46.6884 28.834 45.6442 28.4027C44.6227 27.9714 43.7602 27.3585 43.0565 26.564C42.3755 25.7695 41.8534 24.8275 41.4902 23.7379C41.1497 22.6257 40.9795 21.4113 40.9795 20.0947C40.9795 18.7781 41.1497 17.5524 41.4902 16.4174C41.8307 15.2597 42.3415 14.2609 43.0224 13.4211C43.7261 12.5585 44.6 11.8889 45.6442 11.4122C46.6884 10.9128 47.9028 10.6631 49.2875 10.6631C50.2862 10.6631 51.2169 10.7879 52.0795 11.0376C52.9648 11.2646 53.7366 11.6278 54.3948 12.1272C55.0758 12.6266 55.632 13.2622 56.0633 14.0339C56.4945 14.783 56.7669 15.6797 56.8804 16.7238H53.8841Z" fill="#EEF8FF"/>
<path d="M35.5266 18.1879C35.4812 17.507 35.3223 16.86 35.0499 16.2471C34.8002 15.6343 34.4484 15.1122 33.9944 14.6809C33.5631 14.2269 33.041 13.8751 32.4281 13.6254C31.838 13.353 31.1797 13.2168 30.4533 13.2168C29.7042 13.2168 29.0232 13.353 28.4104 13.6254C27.8202 13.8751 27.3094 14.2269 26.8781 14.6809C26.4469 15.1349 26.1064 15.6683 25.8567 16.2812C25.607 16.8714 25.4594 17.507 25.414 18.1879H35.5266ZM38.3186 23.091C37.9328 25.0659 37.0815 26.5527 35.765 27.5514C34.4484 28.5502 32.7913 29.0496 30.7938 29.0496C29.3864 29.0496 28.1607 28.8226 27.1165 28.3686C26.095 27.9146 25.2324 27.2791 24.5288 26.4619C23.8251 25.6447 23.2916 24.6686 22.9284 23.5337C22.588 22.3987 22.395 21.1616 22.3496 19.8223C22.3496 18.483 22.5539 17.2573 22.9625 16.145C23.3711 15.0327 23.9386 14.068 24.6649 13.2508C25.414 12.4336 26.288 11.7981 27.2867 11.3441C28.3082 10.8901 29.4205 10.6631 30.6235 10.6631C32.1898 10.6631 33.4837 10.9922 34.5051 11.6505C35.5493 12.2861 36.3778 13.1033 36.9907 14.102C37.6263 15.1008 38.0576 16.1904 38.2846 17.3708C38.5343 18.5511 38.6364 19.6748 38.591 20.7416H25.414C25.3913 21.5134 25.4821 22.2511 25.6864 22.9548C25.8907 23.6358 26.2199 24.2487 26.6738 24.7935C27.1278 25.3156 27.7067 25.7355 28.4104 26.0533C29.114 26.3711 29.9426 26.53 30.8959 26.53C32.1217 26.53 33.1205 26.2462 33.8923 25.6787C34.6867 25.1113 35.2088 24.2487 35.4585 23.091H38.3186Z" fill="#EEF8FF"/>
<path d="M13.1935 7.08721H5.08984V4.36328H24.5319V7.08721H16.4282V28.6743H13.1935V7.08721Z" fill="#EEF8FF"/>
</svg>
