<svg width="32" height="32" viewBox="0 0 32 32" fill="none" xmlns="http://www.w3.org/2000/svg">
<path fill-rule="evenodd" clip-rule="evenodd" d="M4.50335 6.77687C4 7.49403 4 9.62575 4 13.8892V15.9888C4 23.5062 9.65195 27.1543 13.1981 28.7034C14.16 29.1236 14.641 29.3337 16 29.3337C17.359 29.3337 17.84 29.1236 18.8019 28.7034C22.348 27.1543 28 23.5062 28 15.9888V13.8892C28 9.62575 28 7.49403 27.4966 6.77687C26.9933 6.05971 24.9889 5.3736 20.9801 4.00138L20.2164 3.73995C18.1267 3.02464 17.0819 2.66699 16 2.66699C14.9181 2.66699 13.8733 3.02464 11.7836 3.73995L11.0199 4.00138C7.0111 5.3736 5.00671 6.05971 4.50335 6.77687ZM20.0793 13.9997C20.4471 13.5877 20.4113 12.9556 19.9993 12.5877C19.5874 12.2199 18.9552 12.2557 18.5874 12.6676L14.5714 17.1655L13.4126 15.8676C13.0448 15.4557 12.4126 15.4199 12.0007 15.7877C11.5887 16.1555 11.5529 16.7877 11.9207 17.1997L13.8255 19.333C14.0152 19.5455 14.2866 19.667 14.5714 19.667C14.8563 19.667 15.1276 19.5455 15.3174 19.333L20.0793 13.9997Z" fill="#EF4444"/>
</svg>
