<svg width="217" height="104" viewBox="0 0 217 104" fill="none" xmlns="http://www.w3.org/2000/svg">
<rect x="0.314016" y="0.314016" width="205.372" height="103.372" rx="9.7345" fill="white"/>
<rect x="0.314016" y="0.314016" width="205.372" height="103.372" rx="9.7345" stroke="#F9FAFB" stroke-width="0.628032"/>
<path d="M15.422 14.6254V13.6543H20.5238V14.6254H18.5474V20.0488H17.3984V14.6254H15.422ZM22.8851 20.1425C22.4043 20.1425 21.989 20.0426 21.6393 19.8428C21.2917 19.6408 21.0242 19.3557 20.8368 18.9872C20.6495 18.6167 20.5558 18.1806 20.5558 17.679C20.5558 17.1857 20.6495 16.7527 20.8368 16.3801C21.0263 16.0054 21.2906 15.714 21.6299 15.5059C21.9692 15.2956 22.3678 15.1905 22.8258 15.1905C23.1213 15.1905 23.4003 15.2384 23.6625 15.3341C23.9269 15.4278 24.16 15.5735 24.3619 15.7712C24.5659 15.969 24.7262 16.2209 24.8428 16.5269C24.9594 16.8308 25.0176 17.1929 25.0176 17.6134V17.96H21.0866V17.1981H23.9342C23.9321 16.9817 23.8853 16.7891 23.7937 16.6205C23.7021 16.4498 23.5741 16.3156 23.4096 16.2177C23.2473 16.1199 23.0579 16.071 22.8414 16.071C22.6103 16.071 22.4074 16.1272 22.2325 16.2396C22.0577 16.3499 21.9213 16.4956 21.8235 16.6767C21.7278 16.8557 21.6788 17.0524 21.6768 17.2668V17.9319C21.6768 18.2108 21.7278 18.4502 21.8297 18.65C21.9317 18.8478 22.0743 18.9997 22.2575 19.1059C22.4407 19.21 22.6551 19.262 22.9007 19.262C23.0651 19.262 23.214 19.2391 23.3472 19.1933C23.4804 19.1454 23.5959 19.0757 23.6938 18.9841C23.7916 18.8925 23.8655 18.7791 23.9155 18.6438L24.9708 18.7624C24.9042 19.0414 24.7772 19.2849 24.5899 19.4931C24.4046 19.6991 24.1673 19.8594 23.878 19.9739C23.5887 20.0863 23.2577 20.1425 22.8851 20.1425ZM28.0658 20.1425C27.587 20.1425 27.1759 20.0374 26.8325 19.8271C26.4911 19.6169 26.2278 19.3265 26.0425 18.956C25.8594 18.5834 25.7678 18.1546 25.7678 17.6696C25.7678 17.1825 25.8614 16.7527 26.0488 16.3801C26.2361 16.0054 26.5005 15.714 26.8419 15.5059C27.1853 15.2956 27.5912 15.1905 28.0596 15.1905C28.4488 15.1905 28.7933 15.2623 29.093 15.4059C29.3949 15.5475 29.6353 15.7484 29.8143 16.0085C29.9933 16.2667 30.0953 16.5685 30.1203 16.914H29.04C28.9963 16.683 28.8922 16.4904 28.7277 16.3364C28.5654 16.1803 28.3479 16.1022 28.0752 16.1022C27.8441 16.1022 27.6412 16.1647 27.4663 16.2896C27.2915 16.4124 27.1551 16.5893 27.0573 16.8203C26.9615 17.0514 26.9137 17.3282 26.9137 17.6509C26.9137 17.9777 26.9615 18.2587 27.0573 18.4939C27.153 18.727 27.2873 18.9071 27.4601 19.0341C27.6349 19.159 27.84 19.2214 28.0752 19.2214C28.2417 19.2214 28.3905 19.1902 28.5217 19.1277C28.6549 19.0632 28.7662 18.9706 28.8557 18.8499C28.9453 18.7291 29.0067 18.5824 29.04 18.4096H30.1203C30.0932 18.7489 29.9933 19.0497 29.8205 19.312C29.6478 19.5722 29.4126 19.7761 29.1149 19.9239C28.8172 20.0696 28.4675 20.1425 28.0658 20.1425ZM32.1787 17.2387V20.0488H31.0484V13.6543H32.1537V16.0679H32.2099C32.3223 15.7973 32.4961 15.5839 32.7313 15.4278C32.9686 15.2696 33.2704 15.1905 33.6368 15.1905C33.9698 15.1905 34.2602 15.2602 34.5079 15.3997C34.7556 15.5392 34.9471 15.7431 35.0824 16.0117C35.2198 16.2802 35.2885 16.608 35.2885 16.9952V20.0488H34.1582V17.17C34.1582 16.8474 34.075 16.5966 33.9084 16.4176C33.744 16.2365 33.5129 16.1459 33.2153 16.1459C33.0155 16.1459 32.8364 16.1896 32.6782 16.2771C32.5221 16.3624 32.3993 16.4863 32.3098 16.6486C32.2224 16.811 32.1787 17.0077 32.1787 17.2387ZM38.8698 15.2529V16.1272H36.0347V15.2529H38.8698ZM36.7435 20.0488V14.8002C36.7435 14.4776 36.8101 14.209 36.9433 13.9946C37.0786 13.7802 37.2597 13.62 37.4866 13.5138C37.7135 13.4077 37.9654 13.3546 38.2422 13.3546C38.4379 13.3546 38.6117 13.3702 38.7637 13.4014C38.9156 13.4326 39.028 13.4607 39.1009 13.4857L38.8761 14.36C38.8282 14.3454 38.7678 14.3308 38.695 14.3162C38.6221 14.2996 38.5409 14.2913 38.4514 14.2913C38.2412 14.2913 38.0924 14.3423 38.0049 14.4443C37.9196 14.5442 37.8769 14.6878 37.8769 14.8751V20.0488H36.7435ZM40.8853 13.6543V20.0488H39.755V13.6543H40.8853ZM44.1395 20.1425C43.6712 20.1425 43.2653 20.0395 42.9218 19.8334C42.5783 19.6273 42.3119 19.339 42.1225 18.9685C41.9351 18.598 41.8415 18.165 41.8415 17.6696C41.8415 17.1742 41.9351 16.7402 42.1225 16.3676C42.3119 15.995 42.5783 15.7057 42.9218 15.4996C43.2653 15.2935 43.6712 15.1905 44.1395 15.1905C44.6079 15.1905 45.0138 15.2935 45.3572 15.4996C45.7007 15.7057 45.9661 15.995 46.1534 16.3676C46.3428 16.7402 46.4375 17.1742 46.4375 17.6696C46.4375 18.165 46.3428 18.598 46.1534 18.9685C45.9661 19.339 45.7007 19.6273 45.3572 19.8334C45.0138 20.0395 44.6079 20.1425 44.1395 20.1425ZM44.1458 19.237C44.3997 19.237 44.612 19.1673 44.7827 19.0278C44.9534 18.8863 45.0804 18.6969 45.1636 18.4596C45.249 18.2223 45.2916 17.9579 45.2916 17.6665C45.2916 17.373 45.249 17.1076 45.1636 16.8703C45.0804 16.6309 44.9534 16.4405 44.7827 16.2989C44.612 16.1574 44.3997 16.0866 44.1458 16.0866C43.8856 16.0866 43.6691 16.1574 43.4963 16.2989C43.3256 16.4405 43.1976 16.6309 43.1123 16.8703C43.029 17.1076 42.9874 17.373 42.9874 17.6665C42.9874 17.9579 43.029 18.2223 43.1123 18.4596C43.1976 18.6969 43.3256 18.8863 43.4963 19.0278C43.6691 19.1673 43.8856 19.237 44.1458 19.237ZM48.2493 20.0488L46.8942 15.2529H48.0463L48.8893 18.6251H48.933L49.7948 15.2529H50.9345L51.7962 18.6063H51.8431L52.6736 15.2529H53.8288L52.4706 20.0488H51.2935L50.3943 16.8079H50.3287L49.4295 20.0488H48.2493Z" fill="#142B57"/>
<path d="M92.8408 20.8481V12.855H93.3528V20.8481H92.8408ZM94.5643 15.2529C94.5268 14.9365 94.3749 14.6909 94.1084 14.5161C93.842 14.3412 93.5152 14.2538 93.128 14.2538C92.8449 14.2538 92.5972 14.2996 92.3849 14.3912C92.1747 14.4828 92.0102 14.6087 91.8916 14.769C91.775 14.9293 91.7167 15.1114 91.7167 15.3154C91.7167 15.4861 91.7573 15.6328 91.8385 15.7556C91.9218 15.8764 92.0279 15.9773 92.157 16.0585C92.286 16.1376 92.4214 16.2032 92.5629 16.2552C92.7044 16.3052 92.8345 16.3458 92.9532 16.377L93.6026 16.5518C93.7692 16.5955 93.9544 16.6559 94.1584 16.7329C94.3645 16.8099 94.5612 16.9151 94.7485 17.0483C94.9379 17.1794 95.0941 17.348 95.2169 17.5541C95.3397 17.7602 95.4011 18.0131 95.4011 18.3128C95.4011 18.6584 95.3105 18.9706 95.1294 19.2495C94.9504 19.5284 94.6882 19.7501 94.3426 19.9146C93.9992 20.079 93.5818 20.1612 93.0906 20.1612C92.6326 20.1612 92.2361 20.0873 91.901 19.9395C91.5679 19.7918 91.3056 19.5857 91.1141 19.3213C90.9247 19.057 90.8175 18.7499 90.7925 18.4002H91.5919C91.6127 18.6417 91.6938 18.8415 91.8354 18.9997C91.979 19.1558 92.1601 19.2724 92.3787 19.3494C92.5993 19.4244 92.8366 19.4618 93.0906 19.4618C93.3861 19.4618 93.6515 19.414 93.8868 19.3182C94.122 19.2204 94.3083 19.0851 94.4457 18.9123C94.583 18.7375 94.6517 18.5335 94.6517 18.3003C94.6517 18.088 94.5924 17.9152 94.4738 17.782C94.3551 17.6488 94.199 17.5406 94.0054 17.4573C93.8118 17.374 93.6026 17.3012 93.3778 17.2387L92.591 17.0139C92.0914 16.8703 91.6959 16.6653 91.4045 16.3988C91.1131 16.1324 90.9674 15.7837 90.9674 15.3529C90.9674 14.9948 91.0642 14.6826 91.2578 14.4162C91.4534 14.1476 91.7157 13.9395 92.0446 13.7917C92.3756 13.6418 92.745 13.5669 93.153 13.5669C93.5652 13.5669 93.9315 13.6408 94.2521 13.7886C94.5726 13.9343 94.8266 14.1341 95.0139 14.3881C95.2033 14.642 95.3033 14.9303 95.3137 15.2529H94.5643ZM96.5618 20.0488V19.4868L98.6725 17.1763C98.9202 16.9057 99.1242 16.6705 99.2845 16.4706C99.4447 16.2687 99.5634 16.0793 99.6404 15.9024C99.7195 15.7234 99.7591 15.536 99.7591 15.3404C99.7591 15.1156 99.7049 14.9209 99.5967 14.7565C99.4905 14.5921 99.3448 14.4651 99.1596 14.3756C98.9743 14.2861 98.7662 14.2413 98.5351 14.2413C98.2895 14.2413 98.0751 14.2923 97.8919 14.3943C97.7108 14.4942 97.5703 14.6347 97.4704 14.8158C97.3726 14.9969 97.3237 15.2092 97.3237 15.4528H96.5868C96.5868 15.0781 96.6732 14.7492 96.8459 14.4661C97.0187 14.183 97.2539 13.9624 97.5516 13.8042C97.8513 13.646 98.1875 13.5669 98.5601 13.5669C98.9348 13.5669 99.2668 13.646 99.5561 13.8042C99.8454 13.9624 100.072 14.1757 100.237 14.4443C100.401 14.7128 100.483 15.0115 100.483 15.3404C100.483 15.5756 100.441 15.8056 100.355 16.0304C100.272 16.2531 100.126 16.5019 99.9183 16.7766C99.7122 17.0493 99.426 17.3824 99.0597 17.7758L97.6234 19.312V19.3619H100.596V20.0488H96.5618ZM102.997 19.1746L102.947 19.5118C102.912 19.7491 102.857 20.003 102.785 20.2736C102.714 20.5442 102.64 20.7992 102.563 21.0386C102.486 21.278 102.422 21.4684 102.372 21.61H101.81C101.837 21.4768 101.873 21.3009 101.917 21.0823C101.96 20.8638 102.004 20.6192 102.048 20.3486C102.094 20.0801 102.131 19.8053 102.16 19.5243L102.198 19.1746H102.997ZM106.219 20.1363C105.853 20.1363 105.523 20.0634 105.229 19.9177C104.936 19.772 104.701 19.5722 104.524 19.3182C104.347 19.0643 104.25 18.7749 104.233 18.4502H104.983C105.012 18.7395 105.143 18.9789 105.376 19.1683C105.611 19.3557 105.892 19.4493 106.219 19.4493C106.481 19.4493 106.715 19.3879 106.919 19.2651C107.125 19.1423 107.286 18.9737 107.403 18.7593C107.521 18.5428 107.58 18.2982 107.58 18.0256C107.58 17.7466 107.519 17.4979 107.396 17.2793C107.276 17.0587 107.109 16.8849 106.897 16.7579C106.684 16.6309 106.442 16.5664 106.169 16.5643C105.974 16.5622 105.773 16.5924 105.567 16.6549C105.361 16.7152 105.191 16.7933 105.058 16.889L104.333 16.8016L104.72 13.6543H108.043V14.3412H105.37L105.145 16.2271H105.183C105.314 16.123 105.478 16.0366 105.676 15.968C105.874 15.8993 106.08 15.8649 106.294 15.8649C106.685 15.8649 107.034 15.9586 107.34 16.1459C107.648 16.3312 107.89 16.5851 108.064 16.9078C108.241 17.2304 108.33 17.5988 108.33 18.0131C108.33 18.4211 108.238 18.7853 108.055 19.1059C107.874 19.4244 107.624 19.6762 107.306 19.8615C106.987 20.0447 106.625 20.1363 106.219 20.1363ZM109.42 18.7375V18.1005L112.23 13.6543H112.692V14.641H112.38L110.257 18.0006V18.0505H114.041V18.7375H109.42ZM112.43 20.0488V18.5439V18.2472V13.6543H113.167V20.0488H112.43ZM117.21 20.1363C116.843 20.1363 116.513 20.0634 116.22 19.9177C115.926 19.772 115.691 19.5722 115.514 19.3182C115.337 19.0643 115.241 18.7749 115.224 18.4502H115.973C116.002 18.7395 116.134 18.9789 116.367 19.1683C116.602 19.3557 116.883 19.4493 117.21 19.4493C117.472 19.4493 117.705 19.3879 117.909 19.2651C118.115 19.1423 118.277 18.9737 118.393 18.7593C118.512 18.5428 118.571 18.2982 118.571 18.0256C118.571 17.7466 118.51 17.4979 118.387 17.2793C118.266 17.0587 118.1 16.8849 117.887 16.7579C117.675 16.6309 117.432 16.5664 117.16 16.5643C116.964 16.5622 116.763 16.5924 116.557 16.6549C116.351 16.7152 116.181 16.7933 116.048 16.889L115.324 16.8016L115.711 13.6543H119.033V14.3412H116.36L116.136 16.2271H116.173C116.304 16.123 116.469 16.0366 116.666 15.968C116.864 15.8993 117.07 15.8649 117.285 15.8649C117.676 15.8649 118.025 15.9586 118.331 16.1459C118.639 16.3312 118.88 16.5851 119.055 16.9078C119.232 17.2304 119.32 17.5988 119.32 18.0131C119.32 18.4211 119.229 18.7853 119.046 19.1059C118.865 19.4244 118.615 19.6762 118.296 19.8615C117.978 20.0447 117.616 20.1363 117.21 20.1363ZM121.432 19.1746L121.382 19.5118C121.347 19.7491 121.292 20.003 121.22 20.2736C121.149 20.5442 121.075 20.7992 120.998 21.0386C120.921 21.278 120.857 21.4684 120.807 21.61H120.245C120.272 21.4768 120.308 21.3009 120.352 21.0823C120.395 20.8638 120.439 20.6192 120.483 20.3486C120.528 20.0801 120.566 19.8053 120.595 19.5243L120.633 19.1746H121.432ZM124.647 20.1363C124.177 20.1363 123.776 20.0082 123.445 19.7522C123.114 19.4941 122.861 19.1205 122.686 18.6313C122.511 18.14 122.424 17.5468 122.424 16.8516C122.424 16.1605 122.511 15.5704 122.686 15.0812C122.863 14.59 123.117 14.2153 123.448 13.9572C123.781 13.697 124.181 13.5669 124.647 13.5669C125.113 13.5669 125.512 13.697 125.843 13.9572C126.176 14.2153 126.43 14.59 126.605 15.0812C126.782 15.5704 126.87 16.1605 126.87 16.8516C126.87 17.5468 126.783 18.14 126.608 18.6313C126.433 19.1205 126.18 19.4941 125.849 19.7522C125.518 20.0082 125.118 20.1363 124.647 20.1363ZM124.647 19.4493C125.113 19.4493 125.476 19.2245 125.734 18.7749C125.992 18.3253 126.121 17.6842 126.121 16.8516C126.121 16.2979 126.061 15.8264 125.943 15.4372C125.826 15.0479 125.658 14.7513 125.437 14.5473C125.218 14.3433 124.955 14.2413 124.647 14.2413C124.185 14.2413 123.824 14.4692 123.564 14.9251C123.303 15.3789 123.173 16.021 123.173 16.8516C123.173 17.4053 123.232 17.8757 123.348 18.2629C123.465 18.65 123.632 18.9446 123.851 19.1465C124.072 19.3484 124.337 19.4493 124.647 19.4493ZM130.18 20.1363C129.918 20.1321 129.655 20.0821 129.393 19.9864C129.131 19.8906 128.891 19.7293 128.675 19.5024C128.458 19.2735 128.285 18.9643 128.153 18.5751C128.022 18.1838 127.957 17.6925 127.957 17.1014C127.957 16.5352 128.01 16.0335 128.116 15.5964C128.222 15.1572 128.376 14.7877 128.578 14.488C128.78 14.1862 129.024 13.9572 129.309 13.8011C129.596 13.6449 129.92 13.5669 130.28 13.5669C130.638 13.5669 130.956 13.6387 131.235 13.7823C131.516 13.9239 131.745 14.1216 131.922 14.3756C132.099 14.6295 132.213 14.922 132.266 15.2529H131.504C131.433 14.9657 131.296 14.7274 131.092 14.5379C130.888 14.3485 130.617 14.2538 130.28 14.2538C129.784 14.2538 129.394 14.4692 129.109 14.9001C128.826 15.331 128.683 15.9357 128.681 16.7142H128.731C128.848 16.5373 128.986 16.3863 129.146 16.2615C129.309 16.1345 129.488 16.0366 129.683 15.968C129.879 15.8993 130.086 15.8649 130.305 15.8649C130.671 15.8649 131.006 15.9565 131.31 16.1397C131.614 16.3208 131.858 16.5716 132.041 16.8922C132.224 17.2106 132.315 17.576 132.315 17.9881C132.315 18.3836 132.227 18.7458 132.05 19.0747C131.873 19.4015 131.624 19.6617 131.304 19.8552C130.985 20.0467 130.611 20.1404 130.18 20.1363ZM130.18 19.4493C130.442 19.4493 130.677 19.3838 130.885 19.2526C131.096 19.1215 131.261 18.9456 131.382 18.725C131.505 18.5043 131.566 18.2587 131.566 17.9881C131.566 17.7237 131.507 17.4833 131.388 17.2668C131.272 17.0483 131.11 16.8745 130.904 16.7454C130.7 16.6164 130.467 16.5518 130.205 16.5518C130.007 16.5518 129.823 16.5914 129.652 16.6705C129.481 16.7475 129.332 16.8537 129.203 16.989C129.076 17.1243 128.976 17.2793 128.903 17.4542C128.83 17.6269 128.794 17.8091 128.794 18.0006C128.794 18.2545 128.853 18.4918 128.971 18.7125C129.092 18.9331 129.257 19.1111 129.465 19.2464C129.675 19.3817 129.913 19.4493 130.18 19.4493Z" fill="#142B57"/>
<path d="M138.738 17.0139V17.6027H136.34V17.0139H138.738ZM141.765 14.5678V20.0488H141.102V15.2636H141.07L139.731 16.1522V15.4778L141.102 14.5678H141.765ZM145.129 20.1238C144.726 20.1238 144.383 20.014 144.099 19.7946C143.815 19.5733 143.599 19.2531 143.449 18.8338C143.299 18.4127 143.224 17.9042 143.224 17.3083C143.224 16.716 143.299 16.2102 143.449 15.7909C143.6 15.3698 143.818 15.0487 144.102 14.8274C144.387 14.6044 144.73 14.4929 145.129 14.4929C145.529 14.4929 145.871 14.6044 146.155 14.8274C146.44 15.0487 146.658 15.3698 146.808 15.7909C146.959 16.2102 147.035 16.716 147.035 17.3083C147.035 17.9042 146.96 18.4127 146.81 18.8338C146.66 19.2531 146.444 19.5733 146.16 19.7946C145.876 20.014 145.533 20.1238 145.129 20.1238ZM145.129 19.535C145.529 19.535 145.84 19.3423 146.061 18.9569C146.282 18.5715 146.393 18.022 146.393 17.3083C146.393 16.8337 146.342 16.4296 146.24 16.096C146.14 15.7623 145.996 15.5081 145.807 15.3332C145.619 15.1584 145.394 15.071 145.129 15.071C144.733 15.071 144.424 15.2663 144.201 15.6571C143.978 16.046 143.866 16.5964 143.866 17.3083C143.866 17.7829 143.916 18.1861 144.016 18.518C144.116 18.8499 144.26 19.1023 144.447 19.2754C144.636 19.4485 144.864 19.535 145.129 19.535ZM148.332 20.0916C148.2 20.0916 148.086 20.0444 147.992 19.9498C147.897 19.8552 147.85 19.7419 147.85 19.6099C147.85 19.4779 147.897 19.3646 147.992 19.27C148.086 19.1755 148.2 19.1282 148.332 19.1282C148.464 19.1282 148.577 19.1755 148.672 19.27C148.766 19.3646 148.813 19.4779 148.813 19.6099C148.813 19.6973 148.791 19.7776 148.746 19.8508C148.704 19.9239 148.646 19.9828 148.573 20.0274C148.501 20.0702 148.421 20.0916 148.332 20.0916ZM149.936 20.0488V19.5671L151.745 17.5867C151.958 17.3547 152.132 17.1531 152.27 16.9818C152.407 16.8088 152.509 16.6464 152.575 16.4947C152.643 16.3413 152.677 16.1807 152.677 16.013C152.677 15.8203 152.63 15.6535 152.537 15.5125C152.446 15.3716 152.322 15.2628 152.163 15.186C152.004 15.1093 151.826 15.071 151.627 15.071C151.417 15.071 151.233 15.1147 151.076 15.2021C150.921 15.2877 150.801 15.4082 150.715 15.5634C150.631 15.7186 150.589 15.9006 150.589 16.1094H149.957C149.957 15.7882 150.032 15.5063 150.18 15.2636C150.328 15.021 150.529 14.8319 150.784 14.6963C151.041 14.5607 151.33 14.4929 151.649 14.4929C151.97 14.4929 152.255 14.5607 152.503 14.6963C152.751 14.8319 152.945 15.0148 153.086 15.2449C153.227 15.4751 153.297 15.7311 153.297 16.013C153.297 16.2146 153.261 16.4118 153.188 16.6045C153.116 16.7954 152.991 17.0086 152.813 17.2441C152.636 17.4778 152.391 17.7633 152.077 18.1005L150.846 19.4172V19.46H153.394V20.0488H149.936ZM156.426 14.5678V20.0488H155.762V15.2636H155.73L154.392 16.1522V15.4778L155.762 14.5678H156.426ZM162.916 19.0211V18.7321C162.916 18.5323 162.957 18.3494 163.039 18.1835C163.123 18.0158 163.244 17.8819 163.403 17.782C163.564 17.6803 163.758 17.6295 163.987 17.6295C164.218 17.6295 164.413 17.6803 164.57 17.782C164.727 17.8819 164.846 18.0158 164.926 18.1835C165.006 18.3494 165.046 18.5323 165.046 18.7321V19.0211C165.046 19.221 165.005 19.4047 164.923 19.5725C164.843 19.7384 164.723 19.8722 164.565 19.9739C164.408 20.0738 164.215 20.1238 163.987 20.1238C163.755 20.1238 163.559 20.0738 163.4 19.9739C163.242 19.8722 163.121 19.7384 163.039 19.5725C162.957 19.4047 162.916 19.221 162.916 19.0211ZM163.462 18.7321V19.0211C163.462 19.1871 163.501 19.336 163.58 19.4681C163.658 19.5983 163.794 19.6634 163.987 19.6634C164.174 19.6634 164.306 19.5983 164.383 19.4681C164.461 19.336 164.5 19.1871 164.5 19.0211V18.7321C164.5 18.5662 164.463 18.4181 164.388 18.2878C164.313 18.1558 164.179 18.0898 163.987 18.0898C163.799 18.0898 163.664 18.1558 163.582 18.2878C163.502 18.4181 163.462 18.5662 163.462 18.7321ZM160.186 15.8845V15.5955C160.186 15.3957 160.227 15.2128 160.309 15.0469C160.393 14.8792 160.515 14.7453 160.673 14.6454C160.834 14.5437 161.028 14.4929 161.257 14.4929C161.489 14.4929 161.683 14.5437 161.84 14.6454C161.997 14.7453 162.116 14.8792 162.196 15.0469C162.276 15.2128 162.317 15.3957 162.317 15.5955V15.8845C162.317 16.0844 162.275 16.2681 162.193 16.4359C162.113 16.6018 161.994 16.7356 161.835 16.8373C161.678 16.9372 161.485 16.9872 161.257 16.9872C161.025 16.9872 160.829 16.9372 160.671 16.8373C160.512 16.7356 160.391 16.6018 160.309 16.4359C160.227 16.2681 160.186 16.0844 160.186 15.8845ZM160.732 15.5955V15.8845C160.732 16.0505 160.771 16.1995 160.85 16.3315C160.928 16.4617 161.064 16.5269 161.257 16.5269C161.444 16.5269 161.576 16.4617 161.653 16.3315C161.731 16.1995 161.771 16.0505 161.771 15.8845V15.5955C161.771 15.4296 161.733 15.2815 161.658 15.1512C161.583 15.0192 161.449 14.9532 161.257 14.9532C161.069 14.9532 160.935 15.0192 160.853 15.1512C160.772 15.2815 160.732 15.4296 160.732 15.5955ZM160.39 20.0488L164.158 14.5678H164.768L161 20.0488H160.39Z" fill="#99A1AF"/>
<g clip-path="url(#clip0_533_1122)">
<path d="M185.902 14.2459C186.653 14.2459 187.262 13.6367 187.262 12.8852C187.262 12.1336 186.653 11.5244 185.902 11.5244C185.15 11.5244 184.541 12.1336 184.541 12.8852C184.541 13.6367 185.15 14.2459 185.902 14.2459Z" fill="#99A1AF"/>
<path d="M185.902 17.91C186.653 17.91 187.262 17.3007 187.262 16.5492C187.262 15.7977 186.653 15.1885 185.902 15.1885C185.15 15.1885 184.541 15.7977 184.541 16.5492C184.541 17.3007 185.15 17.91 185.902 17.91Z" fill="#99A1AF"/>
<path d="M185.902 21.573C186.653 21.573 187.262 20.9638 187.262 20.2123C187.262 19.4608 186.653 18.8516 185.902 18.8516C185.15 18.8516 184.541 19.4608 184.541 20.2123C184.541 20.9638 185.15 21.573 185.902 21.573Z" fill="#99A1AF"/>
</g>
<path fill-rule="evenodd" clip-rule="evenodd" d="M15.0723 30.585H190.927V31.213H15.0723V30.585Z" fill="#D1D5DC"/>
<path fill-rule="evenodd" clip-rule="evenodd" d="M15.0723 92.2295C15.0723 92.2295 23.092 76.4971 29.338 76.4971C35.5841 76.4971 34.8891 54.8458 43.8645 54.8458C52.8399 54.8458 50.9814 38.749 58.1302 38.749C65.2791 38.749 62.2962 59.19 72.1354 58.618C81.9745 58.046 78.371 63.3508 86.6618 63.3508C94.9526 63.3508 92.43 58.9711 100.667 58.211C108.904 57.4509 106.349 65.1167 115.454 65.1221C124.559 65.1274 122.403 72.5384 129.459 72.5384C136.515 72.5384 137.573 64.8366 143.725 64.8366C149.877 64.8366 152.328 67.3853 157.991 67.3853C163.654 67.3853 165.464 62.1399 172.517 62.1399C179.57 62.1399 179.021 64.2696 186.522 63.9994C194.024 63.7293 196.198 73.6461 201.042 73.6461C205.886 73.6461 214.787 87.7597 214.787 87.7597V113.485H15.0788L15.0723 92.2295Z" fill="#BCE3FF"/>
<path d="M72.1354 58.5817L72.1717 59.2087V59.2087L72.1354 58.5817ZM115.454 65.0739L115.454 65.7019V65.7019L115.454 65.0739ZM214.648 88.2828C214.987 88.3591 215.323 88.1467 215.399 87.8084L216.643 82.2947C216.72 81.9563 216.507 81.6202 216.169 81.5438C215.831 81.4675 215.494 81.6799 215.418 82.0182L214.312 86.9193L209.411 85.8134C209.073 85.7371 208.737 85.9495 208.66 86.2878C208.584 86.6262 208.796 86.9623 209.135 87.0387L214.648 88.2828ZM15.0723 92.1318C15.6316 92.4174 15.6316 92.4174 15.6316 92.4174C15.6316 92.4173 15.6317 92.4172 15.6318 92.417C15.632 92.4167 15.6323 92.4161 15.6327 92.4152C15.6335 92.4136 15.6349 92.411 15.6367 92.4074C15.6403 92.4004 15.6459 92.3896 15.6533 92.3752C15.6682 92.3465 15.6906 92.3034 15.7202 92.2469C15.7793 92.1339 15.8674 91.9674 15.9819 91.755C16.2109 91.3302 16.5456 90.7221 16.9669 89.9919C17.8102 88.5304 18.9971 86.5853 20.3751 84.6434C21.756 82.6972 23.3135 80.7761 24.8949 79.3479C26.4989 77.8993 28.0206 77.0561 29.338 77.0561V76.4281V75.8001C27.5325 75.8001 25.7094 76.9198 24.053 78.4157C22.374 79.932 20.7555 81.9367 19.3507 83.9165C17.9429 85.9005 16.7346 87.8813 15.879 89.3642C15.4508 90.1063 15.1102 90.725 14.8762 91.159C14.7593 91.376 14.6689 91.5469 14.6076 91.6639C14.5769 91.7225 14.5535 91.7676 14.5376 91.7983C14.5297 91.8136 14.5236 91.8253 14.5195 91.8334C14.5174 91.8374 14.5159 91.8404 14.5148 91.8426C14.5142 91.8437 14.5138 91.8445 14.5135 91.8451C14.5133 91.8454 14.5132 91.8456 14.5131 91.8458C14.513 91.846 14.5129 91.8461 15.0723 92.1318ZM29.338 76.4281V77.0561C30.3229 77.0561 31.1461 76.6228 31.8295 75.9456C32.5013 75.2798 33.0589 74.36 33.5489 73.3187C34.5252 71.2441 35.3222 68.4814 36.1759 65.8137C37.0421 63.1068 37.9709 60.4797 39.2158 58.5314C40.4542 56.5933 41.9256 55.4444 43.8645 55.4444V54.8164V54.1884C41.3157 54.1884 39.5082 55.741 38.1573 57.8551C36.813 59.959 35.8423 62.7348 34.9796 65.4309C34.1044 68.166 33.343 70.8063 32.4124 72.7839C31.949 73.7687 31.4661 74.5373 30.9453 75.0534C30.4361 75.5581 29.9147 75.8001 29.338 75.8001V76.4281ZM43.8645 54.8164V55.4444C46.3366 55.4444 48.0723 54.3215 49.366 52.6971C50.6339 51.1051 51.4961 49.0086 52.2682 47.0089C53.057 44.9658 53.7483 43.0375 54.6753 41.5999C55.5841 40.1905 56.6388 39.3771 58.1302 39.3771V38.749V38.121C56.0473 38.121 54.6535 39.3159 53.6197 40.9192C52.604 42.4942 51.8585 44.5828 51.0964 46.5565C50.3176 48.5737 49.5148 50.4941 48.3834 51.9146C47.2778 53.3029 45.88 54.1884 43.8645 54.1884V54.8164ZM58.1302 38.749V39.3771C59.5331 39.3771 60.5286 40.3468 61.3807 42.1915C62.2316 44.0339 62.8184 46.4906 63.5182 49.0454C64.2048 51.5517 64.9992 54.143 66.2781 56.0709C67.5843 58.0399 69.4351 59.3675 72.1717 59.2087L72.1354 58.5817L72.099 57.9547C69.9161 58.0814 68.45 57.0727 67.3248 55.3765C66.1724 53.6393 65.4209 51.2368 64.7296 48.7135C64.0517 46.2388 63.4288 43.6303 62.521 41.6648C61.6143 39.7017 60.3018 38.121 58.1302 38.121V38.749ZM72.1354 58.5817L72.1717 59.2087C74.5821 59.0688 76.1108 59.2923 77.1805 59.671C78.2373 60.0452 78.894 60.5865 79.5547 61.1925C80.2125 61.7959 80.9192 62.5139 81.9987 63.05C83.0902 63.5919 84.5215 63.9339 86.6618 63.9339V63.3059V62.6779C84.6567 62.6779 83.4294 62.358 82.5573 61.9249C81.6732 61.486 81.1113 60.9159 80.4037 60.2669C79.6991 59.6205 78.8937 58.9451 77.5997 58.487C76.3187 58.0334 74.6082 57.8091 72.099 57.9547L72.1354 58.5817ZM86.6618 63.3059V63.9339C88.7888 63.9339 90.2696 63.6536 91.422 63.1944C92.5768 62.7341 93.3595 62.1094 94.0849 61.509C94.812 60.9073 95.4725 60.3394 96.4465 59.8608C97.4155 59.3847 98.7249 58.985 100.725 58.8008L100.667 58.1754L100.609 57.55C98.4905 57.7452 97.0263 58.1765 95.8926 58.7335C94.7639 59.288 93.9924 59.9553 93.2841 60.5413C92.5743 61.1288 91.9182 61.6444 90.9569 62.0276C89.9931 62.4117 88.6801 62.6779 86.6618 62.6779V63.3059ZM100.667 58.1754L100.725 58.8008C102.684 58.6203 103.933 58.9439 104.859 59.4768C105.808 60.0232 106.477 60.8185 107.254 61.7423C108.014 62.6467 108.866 63.6579 110.136 64.4247C111.419 65.1997 113.083 65.7005 115.454 65.7019L115.454 65.0739L115.454 64.4459C113.272 64.4446 111.841 63.9869 110.785 63.3495C109.716 62.7037 108.984 61.8484 108.215 60.934C107.463 60.039 106.658 59.0633 105.485 58.3882C104.289 57.6996 102.768 57.3512 100.609 57.55L100.667 58.1754ZM115.454 65.0739L115.454 65.7019C117.64 65.7032 119.099 66.147 120.175 66.7751C121.258 67.4079 122.003 68.2556 122.735 69.1698C123.449 70.0614 124.186 71.0702 125.2 71.8246C126.248 72.6045 127.57 73.1047 129.459 73.1047V72.4767V71.8486C127.82 71.8486 126.766 71.4241 125.949 70.8168C125.099 70.1841 124.483 69.3431 123.715 68.3848C122.966 67.4489 122.102 66.4462 120.808 65.6905C119.506 64.9302 117.82 64.4472 115.454 64.4459L115.454 65.0739ZM129.459 72.4767V73.1047C133.266 73.1047 135.457 71.0013 137.376 69.0761C139.329 67.1166 140.951 65.417 143.725 65.417V64.7889V64.1609C140.347 64.1609 138.364 66.3051 136.486 68.1895C134.574 70.1082 132.708 71.8486 129.459 71.8486V72.4767ZM143.725 64.7889V65.417C146.703 65.417 148.779 66.029 150.858 66.6618C152.947 67.2975 155.056 67.9611 157.991 67.9611V67.333V66.705C155.262 66.705 153.315 66.0965 151.224 65.4602C149.124 64.8209 146.899 64.1609 143.725 64.1609V64.7889ZM157.991 67.333V67.9611C161.036 67.9611 163.059 66.5342 165.072 65.2438C167.088 63.9514 169.177 62.7252 172.517 62.7252V62.0971V61.4691C168.805 61.4691 166.462 62.8609 164.394 64.1864C162.323 65.5139 160.608 66.705 157.991 66.705V67.333ZM172.517 62.0971V62.7252C175.955 62.7252 177.514 63.2375 179.173 63.7286C180.905 64.241 182.712 64.7187 186.545 64.5809L186.522 63.9533L186.5 63.3257C182.831 63.4576 181.162 63.0072 179.53 62.5241C177.825 62.0198 176.132 61.4691 172.517 61.4691V62.0971ZM186.522 63.9533L186.545 64.5809C189.972 64.4577 192.215 66.6345 194.301 69.0748C195.317 70.2625 196.32 71.5442 197.359 72.5017C198.408 73.4688 199.6 74.2104 201.042 74.2104V73.5823V72.9543C200.063 72.9543 199.166 72.4585 198.21 71.5781C197.245 70.688 196.328 69.5119 195.256 68.2586C193.169 65.817 190.574 63.1792 186.5 63.3257L186.522 63.9533ZM201.042 73.5823V74.2104C201.502 74.2104 202.064 74.3802 202.723 74.7391C203.376 75.0951 204.083 75.6144 204.82 76.257C206.296 77.5425 207.836 79.2709 209.241 81.0197C210.644 82.7648 211.898 84.5125 212.803 85.8253C213.255 86.4812 213.619 87.0276 213.87 87.4094C213.995 87.6003 214.092 87.75 214.157 87.8517C214.19 87.9025 214.215 87.9413 214.231 87.9673C214.24 87.9802 214.246 87.99 214.25 87.9964C214.252 87.9996 214.253 88.002 214.254 88.0035C214.255 88.0043 214.255 88.0049 214.255 88.0052C214.255 88.0054 214.256 88.0055 214.256 88.0056C214.256 88.0056 214.256 88.0056 214.787 87.6701C215.318 87.3347 215.317 87.3346 215.317 87.3344C215.317 87.3343 215.317 87.334 215.317 87.3338C215.317 87.3333 215.316 87.3325 215.316 87.3316C215.314 87.3297 215.313 87.327 215.31 87.3234C215.306 87.3163 215.299 87.3059 215.29 87.2922C215.273 87.2648 215.247 87.2245 215.214 87.1722C215.146 87.0675 215.047 86.9145 214.92 86.7202C214.665 86.3316 214.295 85.7773 213.837 85.1126C212.922 83.7839 211.648 82.0096 210.22 80.2328C208.795 78.4597 207.202 76.6661 205.646 75.3101C204.868 74.632 204.085 74.0507 203.324 73.6362C202.569 73.2247 201.793 72.9543 201.042 72.9543V73.5823Z" fill="#59B8FF"/>
<g filter="url(#filter0_dddd_533_1122)">
<rect x="141.936" y="41.4229" width="44.0485" height="16.0243" rx="2.51213" fill="#59B8FF" shape-rendering="crispEdges"/>
<path d="M148.312 51.9355V51.2183L150.215 49.3529C150.397 49.1692 150.549 49.0059 150.67 48.8632C150.792 48.7204 150.883 48.5822 150.943 48.4484C151.004 48.3145 151.034 48.1718 151.034 48.0202C151.034 47.8471 150.995 47.699 150.916 47.5759C150.838 47.451 150.73 47.3547 150.593 47.2869C150.455 47.2191 150.299 47.1852 150.124 47.1852C149.944 47.1852 149.786 47.2226 149.651 47.2976C149.515 47.3707 149.41 47.4751 149.335 47.6107C149.262 47.7463 149.225 47.9078 149.225 48.0951H148.28C148.28 47.7472 148.36 47.4448 148.519 47.1878C148.677 46.9309 148.896 46.732 149.174 46.591C149.454 46.4501 149.775 46.3796 150.138 46.3796C150.505 46.3796 150.828 46.4483 151.106 46.5857C151.385 46.7231 151.601 46.9113 151.754 47.1504C151.909 47.3894 151.987 47.6624 151.987 47.9693C151.987 48.1745 151.948 48.3761 151.869 48.5741C151.791 48.7722 151.652 48.9916 151.454 49.2325C151.258 49.4734 150.982 49.7651 150.627 50.1077L149.683 51.0684V51.1059H152.07V51.9355H148.312ZM154.141 51.1862L154.107 51.4806C154.082 51.7054 154.037 51.9338 153.973 52.1657C153.91 52.3994 153.844 52.6144 153.775 52.8107C153.705 53.0069 153.649 53.1613 153.606 53.2737H152.953C152.978 53.1648 153.012 53.0168 153.055 52.8294C153.099 52.6421 153.142 52.4315 153.183 52.1978C153.224 51.9641 153.252 51.7268 153.266 51.4859L153.285 51.1862H154.141ZM157.055 52.0105C156.698 52.0105 156.379 51.9436 156.097 51.8098C155.815 51.6742 155.591 51.4886 155.425 51.2531C155.261 51.0176 155.174 50.7482 155.163 50.4449H156.127C156.144 50.6697 156.242 50.8534 156.418 50.9962C156.595 51.1371 156.807 51.2076 157.055 51.2076C157.25 51.2076 157.423 51.163 157.574 51.0738C157.726 50.9846 157.846 50.8606 157.933 50.7018C158.02 50.543 158.063 50.3619 158.061 50.1585C158.063 49.9515 158.02 49.7678 157.93 49.6072C157.841 49.4466 157.719 49.3208 157.564 49.2298C157.408 49.1371 157.23 49.0907 157.028 49.0907C156.864 49.0889 156.703 49.1192 156.544 49.1817C156.385 49.2441 156.259 49.3262 156.167 49.4279L155.27 49.2807L155.556 46.4545H158.736V47.2842H156.378L156.22 48.7374H156.252C156.354 48.6179 156.498 48.5188 156.683 48.4403C156.869 48.36 157.072 48.3199 157.293 48.3199C157.625 48.3199 157.921 48.3984 158.182 48.5554C158.442 48.7106 158.648 48.9247 158.797 49.1977C158.947 49.4707 159.022 49.7829 159.022 50.1344C159.022 50.4966 158.938 50.8195 158.771 51.1032C158.605 51.3851 158.374 51.6073 158.078 51.7696C157.783 51.9302 157.442 52.0105 157.055 52.0105ZM159.82 50.9186V50.1291L162.145 46.4545H162.804V47.5786H162.402L160.837 50.0595V50.1023H164.083V50.9186H159.82ZM162.434 51.9355V50.6777L162.445 50.3244V46.4545H163.382V51.9355H162.434ZM166.844 52.0105C166.487 52.0105 166.167 51.9436 165.886 51.8098C165.604 51.6742 165.38 51.4886 165.214 51.2531C165.05 51.0176 164.962 50.7482 164.952 50.4449H165.915C165.933 50.6697 166.03 50.8534 166.207 50.9962C166.383 51.1371 166.596 51.2076 166.844 51.2076C167.038 51.2076 167.211 51.163 167.363 51.0738C167.514 50.9846 167.634 50.8606 167.721 50.7018C167.809 50.543 167.852 50.3619 167.85 50.1585C167.852 49.9515 167.808 49.7678 167.719 49.6072C167.63 49.4466 167.507 49.3208 167.352 49.2298C167.197 49.1371 167.018 49.0907 166.817 49.0907C166.653 49.0889 166.491 49.1192 166.332 49.1817C166.174 49.2441 166.048 49.3262 165.955 49.4279L165.059 49.2807L165.345 46.4545H168.524V47.2842H166.167L166.009 48.7374H166.041C166.142 48.6179 166.286 48.5188 166.472 48.4403C166.657 48.36 166.861 48.3199 167.082 48.3199C167.414 48.3199 167.71 48.3984 167.97 48.5554C168.231 48.7106 168.436 48.9247 168.586 49.1977C168.736 49.4707 168.811 49.7829 168.811 50.1344C168.811 50.4966 168.727 50.8195 168.559 51.1032C168.393 51.3851 168.162 51.6073 167.866 51.7696C167.572 51.9302 167.231 52.0105 166.844 52.0105ZM170.671 51.1862L170.637 51.4806C170.612 51.7054 170.567 51.9338 170.503 52.1657C170.44 52.3994 170.374 52.6144 170.305 52.8107C170.235 53.0069 170.179 53.1613 170.136 53.2737H169.483C169.508 53.1648 169.542 53.0168 169.585 52.8294C169.629 52.6421 169.672 52.4315 169.713 52.1978C169.754 51.9641 169.782 51.7268 169.796 51.4859L169.815 51.1862H170.671ZM173.558 52.0399C173.118 52.0399 172.739 51.9284 172.424 51.7054C172.11 51.4806 171.868 51.1568 171.698 50.7339C171.531 50.3093 171.447 49.7981 171.447 49.2004C171.449 48.6027 171.533 48.0942 171.701 47.6749C171.871 47.2539 172.112 46.9327 172.426 46.7115C172.742 46.4902 173.12 46.3796 173.558 46.3796C173.997 46.3796 174.375 46.4902 174.69 46.7115C175.006 46.9327 175.248 47.2539 175.416 47.6749C175.585 48.096 175.67 48.6045 175.67 49.2004C175.67 49.7999 175.585 50.3119 175.416 50.7366C175.248 51.1594 175.006 51.4824 174.69 51.7054C174.376 51.9284 173.999 52.0399 173.558 52.0399ZM173.558 51.2022C173.901 51.2022 174.171 51.0336 174.369 50.6964C174.569 50.3574 174.669 49.8588 174.669 49.2004C174.669 48.7651 174.624 48.3993 174.533 48.1031C174.442 47.8069 174.313 47.5839 174.147 47.4341C173.981 47.2824 173.785 47.2066 173.558 47.2066C173.218 47.2066 172.948 47.3761 172.75 47.7151C172.552 48.0523 172.452 48.5474 172.45 49.2004C172.449 49.6375 172.492 50.0051 172.582 50.303C172.673 50.601 172.801 50.8258 172.967 50.9774C173.133 51.1273 173.33 51.2022 173.558 51.2022ZM178.566 52.0105C178.304 52.0087 178.048 51.9632 177.798 51.874C177.549 51.783 177.324 51.6358 177.124 51.4324C176.924 51.2272 176.765 50.9551 176.648 50.6161C176.53 50.2754 176.472 49.8534 176.474 49.3503C176.474 48.881 176.524 48.4626 176.623 48.0951C176.723 47.7276 176.867 47.4171 177.054 47.1638C177.242 46.9086 177.467 46.7141 177.731 46.5803C177.997 46.4465 178.294 46.3796 178.623 46.3796C178.967 46.3796 179.272 46.4474 179.538 46.583C179.806 46.7186 180.021 46.9042 180.186 47.1397C180.35 47.3734 180.451 47.6375 180.491 47.9318H179.514C179.464 47.7213 179.361 47.5536 179.206 47.4287C179.053 47.302 178.858 47.2387 178.623 47.2387C178.243 47.2387 177.95 47.4037 177.745 47.7338C177.541 48.0639 177.439 48.5171 177.437 49.0933H177.474C177.562 48.9363 177.675 48.8016 177.814 48.6892C177.954 48.5768 178.111 48.4903 178.285 48.4296C178.462 48.3672 178.648 48.336 178.845 48.336C179.166 48.336 179.454 48.4127 179.709 48.5661C179.966 48.7196 180.169 48.931 180.319 49.2004C180.469 49.468 180.543 49.7749 180.541 50.121C180.543 50.4814 180.461 50.8053 180.295 51.0925C180.129 51.378 179.898 51.6028 179.602 51.7669C179.306 51.9311 178.961 52.0123 178.566 52.0105ZM178.561 51.2076C178.756 51.2076 178.929 51.1603 179.083 51.0658C179.236 50.9712 179.358 50.8436 179.447 50.6831C179.536 50.5225 179.58 50.3423 179.578 50.1424C179.58 49.9462 179.537 49.7687 179.45 49.6099C179.364 49.4511 179.245 49.3253 179.094 49.2325C178.942 49.1397 178.769 49.0933 178.574 49.0933C178.43 49.0933 178.295 49.121 178.17 49.1763C178.045 49.2316 177.937 49.3083 177.844 49.4065C177.751 49.5028 177.678 49.6152 177.624 49.7437C177.573 49.8704 177.546 50.006 177.544 50.1505C177.546 50.3414 177.59 50.5171 177.678 50.6777C177.765 50.8383 177.886 50.9667 178.039 51.0631C178.193 51.1594 178.367 51.2076 178.561 51.2076Z" fill="white"/>
</g>
<g filter="url(#filter1_dddd_533_1122)">
<circle cx="163.289" cy="64.6604" r="1.25606" fill="#101828"/>
<circle cx="163.289" cy="64.6604" r="2.51213" stroke="white" stroke-width="2.51213"/>
</g>
<defs>
<filter id="filter0_dddd_533_1122" x="131.887" y="36.3986" width="64.1459" height="36.1215" filterUnits="userSpaceOnUse" color-interpolation-filters="sRGB">
<feFlood flood-opacity="0" result="BackgroundImageFix"/>
<feColorMatrix in="SourceAlpha" type="matrix" values="0 0 0 0 0 0 0 0 0 0 0 0 0 0 0 0 0 0 127 0" result="hardAlpha"/>
<feOffset dy="5.02426"/>
<feGaussianBlur stdDeviation="5.02426"/>
<feComposite in2="hardAlpha" operator="out"/>
<feColorMatrix type="matrix" values="0 0 0 0 0 0 0 0 0 0 0 0 0 0 0 0 0 0 0.1 0"/>
<feBlend mode="normal" in2="BackgroundImageFix" result="effect1_dropShadow_533_1122"/>
<feColorMatrix in="SourceAlpha" type="matrix" values="0 0 0 0 0 0 0 0 0 0 0 0 0 0 0 0 0 0 127 0" result="hardAlpha"/>
<feOffset dy="2.51213"/>
<feGaussianBlur stdDeviation="2.51213"/>
<feComposite in2="hardAlpha" operator="out"/>
<feColorMatrix type="matrix" values="0 0 0 0 0 0 0 0 0 0 0 0 0 0 0 0 0 0 0.06 0"/>
<feBlend mode="normal" in2="effect1_dropShadow_533_1122" result="effect2_dropShadow_533_1122"/>
<feColorMatrix in="SourceAlpha" type="matrix" values="0 0 0 0 0 0 0 0 0 0 0 0 0 0 0 0 0 0 127 0" result="hardAlpha"/>
<feOffset dy="0.628032"/>
<feGaussianBlur stdDeviation="0.628032"/>
<feComposite in2="hardAlpha" operator="out"/>
<feColorMatrix type="matrix" values="0 0 0 0 0 0 0 0 0 0 0 0 0 0 0 0 0 0 0.05 0"/>
<feBlend mode="normal" in2="effect2_dropShadow_533_1122" result="effect3_dropShadow_533_1122"/>
<feColorMatrix in="SourceAlpha" type="matrix" values="0 0 0 0 0 0 0 0 0 0 0 0 0 0 0 0 0 0 127 0" result="hardAlpha"/>
<feOffset/>
<feGaussianBlur stdDeviation="0.314016"/>
<feComposite in2="hardAlpha" operator="out"/>
<feColorMatrix type="matrix" values="0 0 0 0 0 0 0 0 0 0 0 0 0 0 0 0 0 0 0.05 0"/>
<feBlend mode="normal" in2="effect3_dropShadow_533_1122" result="effect4_dropShadow_533_1122"/>
<feBlend mode="normal" in="SourceGraphic" in2="effect4_dropShadow_533_1122" result="shape"/>
</filter>
<filter id="filter1_dddd_533_1122" x="149.473" y="55.8683" width="27.6322" height="27.6332" filterUnits="userSpaceOnUse" color-interpolation-filters="sRGB">
<feFlood flood-opacity="0" result="BackgroundImageFix"/>
<feColorMatrix in="SourceAlpha" type="matrix" values="0 0 0 0 0 0 0 0 0 0 0 0 0 0 0 0 0 0 127 0" result="hardAlpha"/>
<feOffset dy="5.02426"/>
<feGaussianBlur stdDeviation="5.02426"/>
<feComposite in2="hardAlpha" operator="out"/>
<feColorMatrix type="matrix" values="0 0 0 0 0 0 0 0 0 0 0 0 0 0 0 0 0 0 0.1 0"/>
<feBlend mode="normal" in2="BackgroundImageFix" result="effect1_dropShadow_533_1122"/>
<feColorMatrix in="SourceAlpha" type="matrix" values="0 0 0 0 0 0 0 0 0 0 0 0 0 0 0 0 0 0 127 0" result="hardAlpha"/>
<feOffset dy="2.51213"/>
<feGaussianBlur stdDeviation="2.51213"/>
<feComposite in2="hardAlpha" operator="out"/>
<feColorMatrix type="matrix" values="0 0 0 0 0 0 0 0 0 0 0 0 0 0 0 0 0 0 0.06 0"/>
<feBlend mode="normal" in2="effect1_dropShadow_533_1122" result="effect2_dropShadow_533_1122"/>
<feColorMatrix in="SourceAlpha" type="matrix" values="0 0 0 0 0 0 0 0 0 0 0 0 0 0 0 0 0 0 127 0" result="hardAlpha"/>
<feOffset dy="0.628032"/>
<feGaussianBlur stdDeviation="0.628032"/>
<feComposite in2="hardAlpha" operator="out"/>
<feColorMatrix type="matrix" values="0 0 0 0 0 0 0 0 0 0 0 0 0 0 0 0 0 0 0.05 0"/>
<feBlend mode="normal" in2="effect2_dropShadow_533_1122" result="effect3_dropShadow_533_1122"/>
<feColorMatrix in="SourceAlpha" type="matrix" values="0 0 0 0 0 0 0 0 0 0 0 0 0 0 0 0 0 0 127 0" result="hardAlpha"/>
<feOffset/>
<feGaussianBlur stdDeviation="0.314016"/>
<feComposite in2="hardAlpha" operator="out"/>
<feColorMatrix type="matrix" values="0 0 0 0 0 0 0 0 0 0 0 0 0 0 0 0 0 0 0.05 0"/>
<feBlend mode="normal" in2="effect3_dropShadow_533_1122" result="effect4_dropShadow_533_1122"/>
<feBlend mode="normal" in="SourceGraphic" in2="effect4_dropShadow_533_1122" result="shape"/>
</filter>
<clipPath id="clip0_533_1122">
<rect width="10.0485" height="10.0485" fill="white" transform="translate(180.877 11.5244)"/>
</clipPath>
</defs>
</svg>
